<?xml version="1.0" standalone="no"?>
<!DOCTYPE svg PUBLIC "-//W3C//DTD SVG 20010904//EN"
 "http://www.w3.org/TR/2001/REC-SVG-20010904/DTD/svg10.dtd">
<svg version="1.0" xmlns="http://www.w3.org/2000/svg"
 width="500.000000pt" height="500.000000pt" viewBox="0 0 500.000000 500.000000"
 preserveAspectRatio="xMidYMid meet">
<metadata>
Created by potrace 1.16, written by Peter Selinger 2001-2019
</metadata>
<g transform="translate(0.000000,500.000000) scale(0.100000,-0.100000)"
fill="#000000" stroke="none">
<path d="M2240 4994 c-423 -52 -796 -188 -1135 -415 -376 -251 -660 -578 -856
-984 -84 -174 -130 -299 -174 -469 -59 -232 -70 -328 -70 -636 0 -243 3 -290
23 -403 66 -363 194 -684 393 -982 250 -374 579 -660 984 -856 238 -115 463
-186 715 -226 165 -26 608 -26 765 0 256 43 470 111 715 227 80 38 173 80 208
93 91 36 167 84 231 148 414 410 558 595 712 914 84 174 130 299 174 469 59
232 70 328 70 636 0 243 -3 290 -23 403 -41 228 -125 496 -206 655 -20 40 -26
66 -26 120 0 192 -97 337 -280 417 -30 14 -89 65 -185 160 -211 212 -417 359
-680 486 -234 113 -459 185 -705 224 -101 17 -560 30 -650 19z m695 -349 c377
-58 729 -203 1022 -421 l78 -59 -85 -7 c-185 -17 -409 -70 -660 -157 l-145
-50 -115 113 c-233 228 -516 435 -740 540 l-65 30 47 8 c176 30 480 31 663 3z
m-745 -158 c131 -65 316 -188 457 -303 108 -89 323 -291 322 -303 0 -3 -53
-31 -117 -61 -138 -65 -348 -176 -435 -229 l-62 -38 -23 28 c-35 43 -99 69
-170 69 -103 0 -183 -48 -223 -135 -23 -49 -25 -142 -5 -190 l15 -34 -132
-100 c-194 -146 -368 -294 -527 -448 -77 -74 -142 -134 -144 -132 -2 2 -24 61
-49 130 -138 380 -191 650 -192 966 l0 183 85 86 c258 262 563 455 900 570
l94 32 51 -20 c27 -10 97 -43 155 -71z m2014 -479 c140 -141 253 -284 342
-434 l55 -91 -31 -79 c-70 -176 -189 -368 -352 -569 -112 -138 -186 -221 -191
-214 -2 2 -24 51 -51 109 -158 349 -428 763 -713 1092 l-93 107 58 21 c286
109 600 184 796 189 l48 1 132 -132z m-3328 -316 c3 -316 77 -678 211 -1037
l30 -81 -39 -44 c-332 -378 -512 -665 -582 -930 l-23 -85 -31 95 c-225 678
-128 1412 265 2015 53 81 159 225 166 225 1 0 3 -71 3 -158z m2190 84 c190
-213 404 -522 564 -815 71 -130 194 -397 220 -475 l13 -40 -49 -44 c-415 -370
-825 -656 -1238 -867 l-138 -70 -16 25 c-34 53 -121 128 -183 158 -139 68
-280 65 -424 -8 l-80 -41 -23 28 c-120 146 -320 470 -443 717 l-89 179 93 100
c159 173 399 390 620 561 l88 68 22 -20 c35 -33 92 -52 157 -52 113 0 195 62
227 170 13 47 14 64 4 114 -7 32 -11 59 -9 61 48 39 582 325 607 325 5 0 40
-34 77 -74z m1700 -683 c250 -754 83 -1607 -434 -2223 -105 -126 -119 -137
-93 -77 30 69 69 240 82 357 12 111 7 375 -10 488 l-10 63 46 42 c24 22 57 64
71 92 24 44 27 61 27 150 0 85 -4 107 -24 147 -45 92 -145 168 -242 184 -34 6
-36 9 -63 85 l-28 79 33 39 c19 21 68 79 110 127 168 198 295 385 387 574 l56
115 24 -55 c13 -30 44 -114 68 -187z m-3586 -665 c99 -235 360 -689 491 -856
18 -23 17 -24 -17 -72 -54 -75 -77 -150 -78 -251 l-1 -87 -70 -12 c-38 -6
-124 -14 -190 -17 -194 -9 -342 23 -455 98 -68 46 -111 100 -142 179 -32 83
-30 234 6 355 33 111 124 298 207 425 65 100 209 290 220 290 4 0 17 -24 29
-52z m2711 -195 c-23 -19 -54 -62 -73 -100 -28 -58 -32 -75 -32 -147 0 -98 29
-171 94 -236 41 -41 129 -90 161 -90 41 0 30 -364 -16 -544 -47 -186 -103
-292 -212 -402 -231 -233 -595 -246 -1023 -36 -109 54 -362 213 -388 244 -10
12 -8 20 8 41 53 68 99 227 87 303 l-6 33 97 52 c438 236 902 565 1257 892 64
59 71 63 78 44 6 -16 -1 -27 -32 -54z m-2181 -1326 c148 -144 348 -176 534
-83 l70 34 56 -47 c158 -136 355 -265 545 -357 225 -109 394 -155 584 -157
l113 -2 -78 -36 c-186 -86 -370 -142 -584 -180 -148 -26 -418 -36 -571 -20
-470 49 -909 236 -1261 539 -96 83 -313 310 -305 319 2 1 41 -5 88 -13 113
-22 369 -14 524 15 94 18 219 46 220 50 1 1 30 -27 65 -62z"/>
</g>
</svg>
